<?xml version="1.0" encoding="UTF-8"?>
<svg version="1.1" xmlns="http://www.w3.org/2000/svg" width="653" height="570">
<path d="M0 0 C215.49 0 430.98 0 653 0 C653 188.1 653 376.2 653 570 C437.51 570 222.02 570 0 570 C0 381.9 0 193.8 0 0 Z " fill="#080A0E" transform="translate(0,0)"/>
<path d="M0 0 C0.70474276 -0.00226556 1.40948552 -0.00453111 2.13558412 -0.00686532 C4.51571903 -0.01323453 6.89579741 -0.01237403 9.27593994 -0.0115509 C10.97598342 -0.01454109 12.67602622 -0.01794329 14.37606812 -0.02172852 C19.01363827 -0.03059957 23.65119 -0.03290828 28.28876781 -0.0335443 C31.19271982 -0.0342545 34.09666714 -0.03638851 37.00061798 -0.03904152 C47.15261634 -0.04831396 57.30460155 -0.05237514 67.456604 -0.05158997 C76.87940082 -0.05099268 86.30213974 -0.06147046 95.72492194 -0.07733363 C103.83476011 -0.09049338 111.9445796 -0.09577017 120.05442834 -0.09513456 C124.8880289 -0.09488149 129.72157833 -0.09762382 134.55516815 -0.10831261 C182.80621104 -0.20760017 182.80621104 -0.20760017 201.6519165 4.32121277 C202.55796631 4.53406921 203.46401611 4.74692566 204.39752197 4.9662323 C230.82278581 11.52940021 254.60614519 28.01051782 269.050354 51.18058777 C283.20154651 74.99802436 287.80690468 105.25627602 281.10748291 132.19816589 C279.40572533 138.42488672 277.18318498 144.33527677 274.3394165 150.13371277 C273.5679126 151.73472839 273.5679126 151.73472839 272.78082275 153.36808777 C268.83620848 161.12977683 264.17340414 167.68460947 258.3394165 174.13371277 C257.56726807 174.98836121 256.79511963 175.84300964 255.99957275 176.72355652 C238.82326982 194.79068878 213.26523322 207.07823927 188.22613525 208.12590027 C187.60351807 208.12847839 186.98090088 208.13105652 186.3394165 208.13371277 C189.18369336 213.65759782 192.42780104 218.86227887 195.9019165 224.00871277 C201.34838718 232.08119692 206.53169687 240.30756089 211.71246338 248.5521698 C214.57204632 253.08956926 217.45679079 257.61093153 220.3394165 262.13371277 C225.1773482 269.7281558 229.99684782 277.33386457 234.800354 284.95011902 C239.22067134 291.95480179 243.66792501 298.94219684 248.11968994 305.92692566 C251.45715271 311.16604114 254.77812668 316.41498181 258.08258057 321.67497253 C269.79686305 340.55797583 269.79686305 340.55797583 283.3394165 358.13371277 C283.927229 358.84011902 284.5150415 359.54652527 285.1206665 360.27433777 C293.87952552 369.99815582 305.85475475 373.71307291 318.23394775 376.40715027 C321.3394165 377.13371277 321.3394165 377.13371277 322.3394165 378.13371277 C322.4373222 379.63109401 322.46916515 381.13314169 322.4644165 382.63371277 C322.46699463 383.44840027 322.46957275 384.26308777 322.472229 385.10246277 C322.3394165 387.13371277 322.3394165 387.13371277 321.3394165 388.13371277 C318.68010448 388.30864464 316.04521246 388.41845058 313.38238525 388.48527527 C312.54813522 388.50951569 311.71388519 388.5337561 310.85435486 388.55873108 C303.13537738 388.77049843 295.41460089 388.89499315 287.69342041 388.99302673 C282.504838 389.06002553 277.32032903 389.15557309 272.1338501 389.32023621 C267.1201783 389.47871684 262.11022275 389.56285217 257.09420776 389.59580994 C255.18643164 389.62091944 253.2788069 389.67207151 251.37246704 389.75022888 C236.85183108 390.31850059 236.85183108 390.31850059 232.68045807 386.69108772 C229.79824452 383.14016701 227.9028707 379.23563684 226.161623 375.03020954 C224.90231059 372.12548678 223.2680912 369.46267599 221.6362915 366.75480652 C220.45301605 364.69417321 219.27074131 362.63296497 218.0894165 360.57121277 C213.42600697 352.46080824 208.73443768 344.36940589 203.9644165 336.32121277 C198.94585844 327.85288263 193.94446481 319.37473769 188.9644165 310.88371277 C188.60598663 310.27260651 188.24755676 309.66150024 187.87826538 309.03187561 C182.0427391 299.07806147 176.26422037 289.09247486 170.50738525 279.09294128 C166.42160628 271.99902936 162.29983136 264.92828536 158.1362915 257.87980652 C155.823193 253.96175462 153.52561644 250.03470307 151.2300415 246.10636902 C150.10003585 244.1739302 148.96994076 242.24154372 147.83984375 240.30915833 C147.10452251 239.05112853 146.36967908 237.79281929 145.63537598 236.53419495 C145.2865033 235.93628143 144.93763062 235.33836792 144.57818604 234.72233582 C144.23322586 234.12949295 143.88826569 233.53665009 143.53285217 232.92584229 C142.8371117 231.74307839 142.13159339 230.56601117 141.41636658 229.39492798 C139.62590333 226.44966571 138.05843878 223.56760697 136.7366333 220.38127136 C134.93620332 216.52841944 133.5132171 213.98129831 130.3394165 211.13371277 C123.95869486 209.04148056 116.99506461 209.87022065 110.4019165 210.25871277 C108.56810539 210.31540687 106.73410334 210.36624561 104.89996338 210.41105652 C97.08394198 210.00349287 97.08394198 210.00349287 90.3394165 212.13371277 C90.23883788 213.83653265 90.20865237 215.54354348 90.20570374 217.24932861 C90.20143875 218.35822449 90.19717377 219.46712036 90.19277954 220.60961914 C90.19323273 221.83710373 90.19368591 223.06458832 90.19415283 224.32926941 C90.19079422 225.61378998 90.18743561 226.89831055 90.18397522 228.22175598 C90.17511137 231.75724986 90.17279596 235.29271956 90.17215943 238.82822347 C90.17121127 241.78009213 90.16753361 244.73195513 90.16398734 247.68382162 C90.15583187 254.65369383 90.1534039 261.62355313 90.15411377 268.59342957 C90.15471319 275.77501748 90.14419104 282.95652994 90.12837011 290.13809878 C90.11526914 296.30550014 90.10993102 302.47287695 90.11056918 308.64029211 C90.11082364 312.3226816 90.10800172 316.00500424 90.09739113 319.68737984 C90.08585936 323.80243648 90.0904726 327.91732601 90.09649658 332.03239441 C90.09087708 333.24570938 90.08525757 334.45902435 90.07946777 335.70910645 C90.11038291 344.02761669 90.89020338 350.91873675 94.8394165 358.38371277 C95.262229 359.19324402 95.6850415 360.00277527 96.1206665 360.83683777 C96.522854 361.59480652 96.9250415 362.35277527 97.3394165 363.13371277 C97.638479 363.85043152 97.9375415 364.56715027 98.2456665 365.30558777 C99.64753361 367.6487085 100.83094554 368.10630711 103.3394165 369.13371277 C104.14894775 369.52429871 104.958479 369.91488464 105.7925415 370.31730652 C114.14694841 374.06278783 122.36024053 375.73214088 131.3394165 377.13371277 C131.3394165 380.76371277 131.3394165 384.39371277 131.3394165 388.13371277 C113.36372372 388.15683091 95.38803601 388.17469156 77.41233158 388.18552494 C69.06648821 388.19068807 60.72065424 388.19773107 52.37481689 388.20915222 C45.10322881 388.21909856 37.83164751 388.22556608 30.56005281 388.22780126 C26.70742129 388.22910846 22.85480922 388.23219485 19.00218391 388.23944283 C15.38008979 388.24620225 11.75802322 388.24832989 8.13592339 388.24682045 C6.16444422 388.24722913 4.19296809 388.25262474 2.22149658 388.25813293 C1.05896866 388.25675827 -0.10355927 388.25538361 -1.30131531 388.25396729 C-2.31805297 388.25488908 -3.33479063 388.25581087 -4.38233852 388.2567606 C-6.6605835 388.13371277 -6.6605835 388.13371277 -7.6605835 387.13371277 C-7.8637085 385.13761902 -7.8637085 385.13761902 -7.9105835 382.69621277 C-7.93636475 381.89312683 -7.962146 381.09004089 -7.9887085 380.26261902 C-7.88042725 379.56007996 -7.772146 378.85754089 -7.6605835 378.13371277 C-4.30689878 375.89792296 -1.97628091 375.48847155 1.9644165 374.75871277 C11.92268222 372.697321 20.71080588 369.6407781 26.81207275 361.06340027 C32.2172892 352.01793602 32.6341142 342.92215813 32.60011292 332.57769775 C32.60393846 331.33566367 32.60776401 330.09362959 32.61170548 328.81395811 C32.62020601 325.38744588 32.61981439 321.96114953 32.61552489 318.53464377 C32.6130501 314.83108825 32.62208109 311.12755756 32.62956238 307.42401123 C32.64229011 300.17677074 32.64410551 292.92956734 32.64176212 285.68231756 C32.6399768 279.79016509 32.64173317 273.89802385 32.64598656 268.00587273 C32.64658175 267.16626955 32.64717694 266.32666637 32.64779016 265.46162067 C32.64900195 263.75580379 32.65021608 262.04998691 32.65143254 260.34417003 C32.66230045 244.3593209 32.66014901 228.3744929 32.65404769 212.38964259 C32.64887804 197.77612749 32.66013657 183.16267904 32.67914591 168.54917712 C32.69853142 153.53097279 32.70677913 138.51279999 32.70302266 123.49458307 C32.70111185 115.06819524 32.70358658 106.64186414 32.7177372 98.21548653 C32.72966098 91.0427913 32.73104463 83.87018775 32.71894703 76.69749124 C32.71306561 73.04052404 32.71193841 69.38372445 32.72394943 65.72676849 C32.7368371 61.75666682 32.72632638 57.78681799 32.71363831 53.81671143 C32.72469973 52.09534024 32.72469973 52.09534024 32.73598462 50.33919388 C32.66901975 40.36572535 30.84808609 30.99483317 24.3394165 23.13371277 C16.3653555 15.43883114 6.73312453 13.87861629 -3.8168335 11.78215027 C-6.6605835 11.13371277 -6.6605835 11.13371277 -7.6605835 10.13371277 C-7.75848919 8.63633153 -7.79033214 7.13428385 -7.7855835 5.63371277 C-7.78816162 4.81902527 -7.79073975 4.00433777 -7.793396 3.16496277 C-7.49890926 -1.33895204 -3.71500158 0.00490338 0 0 Z " fill="#F1F0F1" transform="translate(33.66058349609375,94.86628723144531)"/>
<path d="M0 0 C1.15426483 -0.00306656 1.15426483 -0.00306656 2.33184814 -0.00619507 C4.87031973 -0.00919856 7.40813905 0.00925683 9.9465332 0.02832031 C11.70961852 0.03137808 13.47270625 0.03325407 15.23579407 0.03399658 C18.92698437 0.0385965 22.61795613 0.05301352 26.30908203 0.07519531 C31.05074266 0.10353965 35.79223162 0.11441331 40.53396893 0.11887741 C44.17210114 0.12302422 47.81019835 0.13283447 51.44831276 0.1447525 C53.19749482 0.15046558 54.94668027 0.15522083 56.69586754 0.15901947 C59.13324346 0.16585898 61.57048054 0.17947858 64.0078125 0.1953125 C65.10105583 0.19698929 65.10105583 0.19698929 66.21638489 0.19869995 C71.19512344 0.2417543 71.19512344 0.2417543 72.30981445 1.35644531 C72.38207947 3.20932033 72.39362665 5.06478409 72.37231445 6.91894531 C72.36329102 7.93085937 72.35426758 8.94277344 72.3449707 9.98535156 C72.32756836 11.15904297 72.32756836 11.15904297 72.30981445 12.35644531 C71.23602539 12.59878906 70.16223633 12.84113281 69.0559082 13.09082031 C67.61957356 13.42878141 66.18338316 13.76735596 64.74731445 14.10644531 C64.0428418 14.26371094 63.33836914 14.42097656 62.61254883 14.58300781 C54.46059568 16.53647124 47.48762181 20.18905421 42.9621582 27.54785156 C37.73360031 37.28851772 37.01231972 46.84299358 37.05584717 57.75350952 C37.05272719 58.96640203 37.04960721 60.17929454 37.04639268 61.42894137 C37.03982967 64.76952834 37.04214555 68.10988809 37.04836512 71.45046091 C37.0529106 75.06337137 37.04589543 78.67626271 37.04040527 82.28916931 C37.03153138 89.35714067 37.03342449 96.42506945 37.03923056 103.49304245 C37.04375565 109.24070235 37.04435628 114.98835034 37.04218292 120.73601151 C37.04172322 121.96520558 37.04172322 121.96520558 37.04125424 123.21923185 C37.04061475 124.88421674 37.03996633 126.54920162 37.03930905 128.2141865 C37.03361144 143.81234291 37.04015435 159.41047578 37.05090979 175.00862832 C37.05984143 188.37523016 37.05829534 201.74179724 37.04907227 215.10839844 C37.0383538 230.64937112 37.03416423 246.19032318 37.04029679 261.73129904 C37.04093385 263.39061522 37.0415626 265.0499314 37.04218292 266.70924759 C37.04249147 267.52554992 37.04280002 268.34185224 37.04311793 269.182891 C37.04484039 274.91864845 37.04193939 280.65439275 37.03722382 286.39014816 C37.0315973 293.387445 37.03316839 300.384697 37.0437853 307.38198875 C37.04901878 310.94803917 37.05113875 314.51401501 37.044487 318.08006477 C37.03736837 321.95522272 37.0459045 325.83026022 37.05584717 329.70541382 C37.05138572 330.81925017 37.04692428 331.93308652 37.04232764 333.08067548 C37.10040581 344.79870351 37.97463681 356.85766361 45.84106445 366.16894531 C53.55761935 373.44871409 64.26316623 375.27782844 74.30981445 377.35644531 C74.33669596 379.00219097 74.35615569 380.64805945 74.37231445 382.29394531 C74.3897168 383.66873047 74.3897168 383.66873047 74.4074707 385.07128906 C74.30981445 387.35644531 74.30981445 387.35644531 73.30981445 388.35644531 C71.5912034 388.45486865 69.86852165 388.48276572 68.14709473 388.48342896 C67.02808273 388.48624878 65.90907074 388.4890686 64.75614929 388.49197388 C63.51766739 388.48994965 62.27918549 388.48792542 61.00317383 388.48583984 C59.0595269 388.48846832 59.0595269 388.48846832 57.07661438 388.4911499 C53.51266109 388.49572388 49.94873661 388.49393482 46.38478279 388.49077082 C42.66297449 388.48824703 38.94116874 388.4905848 35.21936035 388.49215698 C28.96809443 388.49397862 22.7168403 388.49157251 16.46557617 388.48681641 C9.22820322 388.48137379 1.99085843 388.48313645 -5.24651384 388.48864281 C-11.44947314 388.49317409 -17.65242393 388.49382442 -23.85538435 388.49120414 C-27.56491527 388.48964145 -31.27443293 388.48944738 -34.98396301 388.49274063 C-39.11717408 388.4961534 -43.25033624 388.49142936 -47.38354492 388.48583984 C-48.62202682 388.48786407 -49.86050873 388.48988831 -51.13652039 388.49197388 C-52.81503838 388.48774414 -52.81503838 388.48774414 -54.52746582 388.48342896 C-55.50603294 388.48305193 -56.48460007 388.4826749 -57.49282074 388.48228645 C-59.69018555 388.35644531 -59.69018555 388.35644531 -60.69018555 387.35644531 C-60.76198519 385.83716493 -60.77410562 384.3147705 -60.75268555 382.79394531 C-60.74366211 381.96765625 -60.73463867 381.14136719 -60.7253418 380.29003906 C-60.70793945 379.33291016 -60.70793945 379.33291016 -60.69018555 378.35644531 C-56.29865466 376.77360826 -52.03728616 375.82776058 -47.44018555 375.04394531 C-38.62836243 373.37745783 -30.58101624 370.77823366 -24.9362793 363.43847656 C-18.87995274 353.31928517 -18.53795717 342.43916935 -18.56993103 330.99230957 C-18.56907661 329.86658082 -18.56822218 328.74085208 -18.56734186 327.58101034 C-18.56569836 323.81929004 -18.57118995 320.05761461 -18.57666016 316.29589844 C-18.5769423 313.59524434 -18.57682777 310.89459297 -18.57621765 308.19393921 C-18.57569428 302.38492877 -18.57882153 296.5759296 -18.58445549 290.766922 C-18.59259585 282.36815872 -18.59518831 273.96940086 -18.59644348 265.57063407 C-18.59863002 251.94291963 -18.6052793 238.31521118 -18.61474609 224.6875 C-18.62393052 211.45247426 -18.63100631 198.21745016 -18.63525391 184.98242188 C-18.63551663 184.16608687 -18.63577935 183.34975187 -18.63605004 182.50867945 C-18.63735511 178.41320901 -18.63861881 174.31773856 -18.63986194 170.2222681 C-18.65022215 136.26698949 -18.66782963 102.31171814 -18.69018555 68.35644531 C-20.60768039 72.33669485 -22.52290347 76.31803353 -24.43774414 80.29956055 C-24.97624496 81.417286 -25.51474579 82.53501144 -26.06956482 83.68660736 C-29.99047692 91.84332637 -33.76993822 100.04821921 -37.40252686 108.33676147 C-39.06788842 112.13619819 -40.74735601 115.92941299 -42.42456055 119.72363281 C-42.7724765 120.51160751 -43.12039246 121.29958221 -43.47885132 122.11143494 C-47.08781594 130.27637351 -50.7622214 138.41147258 -54.43728638 146.54681396 C-61.00653024 161.09090197 -67.48425593 175.67172553 -73.87768555 190.29394531 C-79.56614963 203.30352068 -85.33420625 216.2708774 -91.23654175 229.18481445 C-96.03857509 239.69186024 -100.76257837 250.23093671 -105.44018555 260.79394531 C-111.35834165 274.15516549 -117.34612971 287.48353509 -123.37768555 300.79394531 C-123.78218933 301.68664124 -124.18669312 302.57933716 -124.60345459 303.49908447 C-125.00509827 304.38545593 -125.40674194 305.27182739 -125.82055664 306.18505859 C-126.61696799 307.94269717 -127.41335504 309.70034676 -128.2097168 311.45800781 C-128.78958344 312.73782028 -128.78958344 312.73782028 -129.38116455 314.04348755 C-132.79326882 321.57752669 -136.18433804 329.12083689 -139.56518555 336.66894531 C-140.07267334 337.80025879 -140.58016113 338.93157227 -141.10302734 340.09716797 C-143.51710374 345.4832821 -145.92149086 350.87341537 -148.3052063 356.27302551 C-149.4802234 358.93278949 -150.65973145 361.59055056 -151.83966064 364.24813843 C-152.66127807 366.1036613 -153.47638944 367.96206083 -154.29125977 369.82055664 C-157.03640919 376.00000147 -159.92809564 381.73405728 -163.69018555 387.35644531 C-166.95878894 384.65334639 -168.43315984 381.09591931 -170.16674805 377.32910156 C-170.4932132 376.63300278 -170.81967834 375.93690399 -171.15603638 375.2197113 C-172.21560279 372.95576656 -173.26557614 370.68752128 -174.31518555 368.41894531 C-175.0455643 366.85234527 -175.77636027 365.28593968 -176.50756836 363.71972656 C-180.92115016 354.24931634 -185.25989822 344.74704951 -189.5144043 335.20410156 C-192.04339686 329.54408711 -194.64874356 323.91977759 -197.25268555 318.29394531 C-202.02766424 307.97193919 -206.77492802 297.63764993 -211.50268555 287.29394531 C-211.84174927 286.55226105 -212.18081299 285.81057678 -212.53015137 285.04641724 C-216.15686918 277.11171199 -219.77653424 269.17388321 -223.37768555 261.22753906 C-224.58586265 258.56210362 -225.79415257 255.89671942 -227.00268555 253.23144531 C-227.3002475 252.57520172 -227.59780945 251.91895813 -227.90438843 251.24282837 C-234.66011648 236.353241 -241.53998651 221.52129878 -248.4332428 206.69497681 C-249.18217162 205.08133324 -249.92909084 203.46675516 -250.67381287 201.85116577 C-252.21929951 198.50008516 -253.78300069 195.16940318 -255.42358398 191.86328125 C-255.90085937 190.88907227 -256.37813477 189.91486328 -256.86987305 188.91113281 C-257.27705566 188.1091748 -257.68423828 187.3072168 -258.10375977 186.48095703 C-258.69018555 184.35644531 -258.69018555 184.35644531 -257.90795898 182.20214844 C-256.44100222 179.9787737 -254.79843296 178.00471819 -253.06518555 175.98144531 C-240.67191779 160.68666841 -235.04927656 143.25051184 -230.69018555 124.35644531 C-227.63812791 127.98732115 -225.8576351 132.01132448 -223.91674805 136.29394531 C-223.37700348 137.46935883 -223.37700348 137.46935883 -222.82635498 138.66851807 C-221.65159601 141.22918406 -220.48343168 143.79280233 -219.31518555 146.35644531 C-218.49750902 148.14151437 -217.67930799 149.92634326 -216.8605957 151.7109375 C-215.22337043 155.28017358 -213.58803235 158.85026486 -211.95385742 162.42089844 C-209.01828566 168.82884975 -206.04333522 175.21817883 -203.06518555 181.60644531 C-197.99368681 192.50677596 -192.98717136 203.43598138 -187.99679565 214.37359619 C-182.20068345 227.07613468 -176.3608873 239.75807122 -170.49478149 252.42843628 C-166.38392665 261.30778928 -162.29820769 270.1968136 -158.2878418 279.12207031 C-157.93842026 279.89807587 -157.58899872 280.67408142 -157.22898865 281.47360229 C-155.57277416 285.15201481 -153.92255505 288.83286684 -152.28369141 292.51904297 C-151.70071995 293.81653232 -151.11748396 295.11390285 -150.53393555 296.41113281 C-150.03055664 297.54019043 -149.52717773 298.66924805 -149.00854492 299.83251953 C-147.94212082 302.47453356 -147.94212082 302.47453356 -145.69018555 303.35644531 C-145.40908936 302.47891602 -145.12799316 301.60138672 -144.83837891 300.69726562 C-143.79930448 297.67394128 -142.63254899 294.81551279 -141.3190918 291.90332031 C-140.59653198 290.29602051 -140.59653198 290.29602051 -139.859375 288.65625 C-139.06406372 286.89909668 -139.06406372 286.89909668 -138.25268555 285.10644531 C-137.68107093 283.83734953 -137.10970859 282.5681401 -136.53857422 281.29882812 C-133.1196021 273.7071303 -129.67861572 266.1254246 -126.23706055 258.54394531 C-124.65841546 255.06501437 -123.08035742 251.5858177 -121.50268555 248.10644531 C-121.10010529 247.21880493 -120.69752502 246.33116455 -120.28274536 245.41662598 C-113.94204163 231.4274966 -107.72751434 217.38695828 -101.5788269 203.31253052 C-95.4484991 189.28655152 -89.18620531 175.32430769 -82.8586731 161.3862915 C-77.39764766 149.35674927 -71.97956692 137.3099496 -66.62768555 125.23144531 C-59.19845374 108.46924686 -51.68330922 91.74650577 -44.14825439 75.03164673 C-41.01103232 68.07151529 -37.88112334 61.10811244 -34.75296021 54.14390564 C-31.74559821 47.44981923 -28.72999337 40.759476 -25.71139526 34.07044983 C-23.81518658 29.86507258 -21.9307828 25.65483062 -20.06303406 21.43673706 C-18.8210078 18.63589747 -17.56675684 15.84052989 -16.31518555 13.04394531 C-15.89309814 12.07779297 -15.47101074 11.11164063 -15.03613281 10.11621094 C-14.64611084 9.25060547 -14.25608887 8.385 -13.85424805 7.49316406 C-13.5289209 6.75799561 -13.20359375 6.02282715 -12.8684082 5.26538086 C-9.67795656 0.09626743 -5.65864975 -0.07214498 0 0 Z " fill="#F1F0F1" transform="translate(560.690185546875,94.6435546875)"/>
<path d="M0 0 C1.04251419 -0.00945648 2.08502838 -0.01891296 3.15913391 -0.02865601 C4.82482674 -0.01954697 4.82482674 -0.01954697 6.52416992 -0.01025391 C7.69235764 -0.01312408 8.86054535 -0.01599426 10.06413269 -0.01895142 C12.53608688 -0.02098911 15.0080573 -0.01547997 17.47998047 -0.00292969 C21.2040773 0.01296776 24.92706219 -0.00270644 28.65112305 -0.02197266 C57.75192801 -0.04827825 83.95228457 4.18130378 105.59448242 25.50927734 C123.62249889 44.92140256 128.32524764 68.86704272 127.79370117 94.62646484 C126.93932954 116.42523458 119.81457435 139.32621914 104.44213867 155.38818359 C103.78213867 155.38818359 103.12213867 155.38818359 102.44213867 155.38818359 C102.44213867 156.04818359 102.44213867 156.70818359 102.44213867 157.38818359 C91.20587973 168.89454492 75.81062136 174.28644877 60.44213867 177.38818359 C59.30267036 177.65307083 59.30267036 177.65307083 58.1401825 177.92330933 C54.99943756 178.46446121 52.03535115 178.51538302 48.84765625 178.51757812 C47.53311966 178.52073029 46.21858307 178.52388245 44.86421204 178.52713013 C43.43836432 178.52534069 42.01251691 178.52328982 40.58666992 178.52099609 C39.11887089 178.52167003 37.65107197 178.52264081 36.18327332 178.52389526 C33.11435885 178.5253666 30.04547357 178.52323488 26.9765625 178.51855469 C23.03879648 178.51284261 19.1010984 178.51614928 15.16333485 178.52212715 C12.13595566 178.52573511 9.10859267 178.52459336 6.081213 178.52199936 C4.62870971 178.52133152 3.17620496 178.52215353 1.72370338 178.52447891 C-0.30138497 178.52701086 -2.32647847 178.52246931 -4.3515625 178.51757812 C-5.50452316 178.51678253 -6.65748383 178.51598694 -7.84538269 178.51516724 C-10.55786133 178.38818359 -10.55786133 178.38818359 -12.55786133 177.38818359 C-12.55786133 119.96818359 -12.55786133 62.54818359 -12.55786133 3.38818359 C-4.68083343 0.0123145 -4.68083343 0.0123145 0 0 Z " fill="#080A0E" transform="translate(135.557861328125,109.61181640625)"/>
<path d="M0 0 C2.12277017 3.18415526 2.24815205 3.93565932 2.23606491 7.57745361 C2.23866306 8.99441339 2.23866306 8.99441339 2.2413137 10.43999863 C2.22878511 11.99965536 2.22878511 11.99965536 2.21600342 13.59082031 C2.21503985 14.69382603 2.21407628 15.79683174 2.21308351 16.93326187 C2.20732647 20.64830609 2.18711501 24.36313281 2.16699219 28.078125 C2.15984369 30.73376651 2.15347866 33.38939944 2.14805603 36.04504395 C2.13294177 42.5207644 2.10692505 48.99639756 2.07704034 55.47206497 C2.05295543 60.73368671 2.03279213 65.99530983 2.01544952 71.25695801 C2.01298063 72.0050329 2.01051173 72.7531078 2.00796802 73.52385163 C2.00297026 75.04341981 1.99798169 76.56298801 1.99300221 78.08255625 C1.94581727 92.34085319 1.88630781 106.59907847 1.8225961 120.85730982 C1.76818076 133.09886103 1.72424604 145.34041326 1.68798828 157.58203125 C1.64590611 171.78833837 1.59739362 185.99459928 1.53855062 200.20084763 C1.53229672 201.71491238 1.526051 203.22897717 1.51981354 204.74304199 C1.51674088 205.48804466 1.51366821 206.23304734 1.51050244 207.00062585 C1.489265 212.25761118 1.47264351 217.5145996 1.45778656 222.77160645 C1.43956082 229.17574416 1.41427338 235.57980711 1.37985936 241.98387909 C1.36247007 245.2530651 1.34936301 248.5221691 1.34270287 251.79139709 C1.33494526 255.33077388 1.31504572 258.86987486 1.29193115 262.40917969 C1.29250165 263.44895084 1.29307214 264.488722 1.29365993 265.56000137 C1.28496104 266.50464123 1.27626215 267.44928108 1.26729965 268.42254639 C1.26225595 269.64869219 1.26225595 269.64869219 1.25711036 270.89960861 C1 273 1 273 -1 276 C-1.0228691 241.12806426 -1.04049962 206.25613022 -1.05106533 171.3841886 C-1.0523161 167.27093692 -1.05361041 163.15768525 -1.05493164 159.04443359 C-1.05519395 158.22552977 -1.05545626 157.40662594 -1.05572652 156.56290685 C-1.06008253 143.28847687 -1.0679697 130.01405121 -1.0771528 116.7396238 C-1.08649126 103.12748504 -1.09205602 89.51534854 -1.09408849 75.90320671 C-1.09546332 67.49802654 -1.09981173 59.09285856 -1.10791647 50.68768214 C-1.1131863 44.93061338 -1.11480375 39.17355096 -1.11350138 33.41647996 C-1.11285837 30.09073144 -1.11441107 26.76502158 -1.11920547 23.43927383 C-1.12414156 19.84036806 -1.12299857 16.24151551 -1.12025452 12.64260864 C-1.12316736 11.58231449 -1.1260802 10.52202034 -1.12908131 9.42959607 C-1.12709026 8.47116358 -1.12509921 7.5127311 -1.12304783 6.5252552 C-1.12342755 5.69366768 -1.12380727 4.86208016 -1.1241985 4.00529301 C-1 2 -1 2 0 0 Z " fill="#FCFDFE" transform="translate(544,161)"/>
<path d="M0 0 C0.33 0 0.66 0 1 0 C1 57.09 1 114.18 1 173 C0.34 172.67 -0.32 172.34 -1 172 C-2.30202981 70.11138896 -2.30202981 70.11138896 -1.65937424 30.19995499 C-1.62494848 28.05929644 -1.5924553 25.91861415 -1.56008911 23.77792358 C-1.49975455 19.88431276 -1.42772465 15.9909924 -1.3515625 12.09765625 C-1.33166763 10.96738007 -1.31177277 9.83710388 -1.29127502 8.6725769 C-1.25658363 7.15834641 -1.25658363 7.15834641 -1.22119141 5.61352539 C-1.20263092 4.7391835 -1.18407043 3.86484161 -1.16494751 2.96400452 C-1 1 -1 1 0 0 Z " fill="#FCFCFD" transform="translate(122,113)"/>
<path d="M0 0 C0.495 0.99 0.495 0.99 1 2 C2.60612907 1.99333817 2.60612907 1.99333817 4.2447052 1.98654175 C14.32431678 1.94603843 24.40391189 1.91603618 34.48358631 1.89637566 C39.66593117 1.88592829 44.84821046 1.8717517 50.03051758 1.84912109 C55.02959019 1.8274267 60.02859964 1.81543855 65.02771568 1.81024551 C66.93714073 1.80654363 68.84656223 1.799315 70.75596046 1.78853989 C73.42568114 1.77407021 76.09513915 1.77202016 78.76489258 1.77294922 C79.55827026 1.76575867 80.35164795 1.75856812 81.16906738 1.75115967 C84.98692567 1.76558313 86.7444051 1.8296034 90 4 C32.25 4 -25.5 4 -85 4 C-85 3.34 -85 2.68 -85 2 C-56.95 2 -28.9 2 0 2 C0 1.34 0 0.68 0 0 Z " fill="#000103" transform="translate(113,91)"/>
<path d="M0 0 C0.33 0 0.66 0 1 0 C1 44.22 1 88.44 1 134 C0.67 134 0.34 134 0 134 C-1.15843201 125.36084605 -1.40570396 116.70371261 -1.625 108 C-1.64745789 107.13457581 -1.66991577 106.26915161 -1.6930542 105.37750244 C-2.20542027 84.14571368 -1.91777182 62.91200627 -1.65892792 41.67858887 C-1.62491053 38.86760681 -1.59254635 36.05660907 -1.56036377 33.24560547 C-1.50828352 28.77369535 -1.45003285 24.30190654 -1.3866272 19.83014297 C-1.36333308 18.15243671 -1.34155304 16.47470871 -1.32131958 14.79696274 C-1.292774 12.48677417 -1.25792023 10.17677015 -1.22119141 7.86669922 C-1.20263092 6.55966034 -1.18407043 5.25262146 -1.16494751 3.90597534 C-1 1 -1 1 0 0 Z " fill="#FDFDFE" transform="translate(122,307)"/>
<path d="M0 0 C0.66 0.33 1.32 0.66 2 1 C1.83720267 1.68054852 1.67440535 2.36109705 1.50667477 3.06226826 C0.92569326 6.43083512 0.88349096 9.58420904 0.89320374 13.00370789 C0.89376044 13.69668923 0.89431715 14.38967057 0.89489073 15.10365134 C0.8979198 17.41899039 0.90809846 19.73424244 0.91821289 22.04956055 C0.92177005 23.71205556 0.92485576 25.37455163 0.92750549 27.03704834 C0.93405025 30.61325534 0.94360539 34.18943724 0.95540047 37.76563072 C0.97369262 43.41640554 0.98329143 49.06717429 0.99131775 54.7179718 C1.01547226 70.78507142 1.0514307 86.85213384 1.09594727 102.91918945 C1.12046423 111.79565657 1.13784387 120.67210927 1.14750665 129.54860526 C1.15406314 135.17047579 1.16964918 140.7922276 1.19182408 146.41405714 C1.20351997 149.90384439 1.20691944 153.39360241 1.20792198 156.88340759 C1.21007678 158.50642545 1.21569335 160.1294428 1.2249527 161.75243568 C1.23706846 163.96080794 1.23699891 166.16884792 1.23377991 168.37724304 C1.23692231 169.61516948 1.24006472 170.85309591 1.24330235 172.12853527 C1 175 1 175 -1 177 C-1.66 176.67 -2.32 176.34 -3 176 C-3.042721 174.33388095 -3.04063832 172.66617115 -3 171 C-2.67 170.67 -2.34 170.34 -2 170 C-1.90090514 167.88052464 -1.87367643 165.75768533 -1.87301636 163.63589478 C-1.87067637 162.62710898 -1.87067637 162.62710898 -1.86828911 161.59794366 C-1.86427706 159.32780652 -1.86746956 157.05773539 -1.87060547 154.78759766 C-1.86925149 153.16672221 -1.86747158 151.54584708 -1.86529541 149.92497253 C-1.86071991 145.50967425 -1.8625113 141.09439922 -1.8656745 136.67910051 C-1.86819836 132.06669583 -1.8658604 127.45429319 -1.86428833 122.84188843 C-1.86246635 115.0925053 -1.86487331 107.34313169 -1.86962891 99.59375 C-1.87506775 90.62731336 -1.87331173 81.66089946 -1.8678025 72.69446337 C-1.86326762 65.00698451 -1.86262279 57.31951251 -1.86524117 49.63203275 C-1.86680236 45.0360021 -1.86700208 40.43998215 -1.86370468 35.84395218 C-1.86082067 31.52171321 -1.86281148 27.19950362 -1.86859894 22.87726784 C-1.86992384 21.28854611 -1.86953697 19.69982191 -1.86733627 18.11110115 C-1.86461413 15.94672464 -1.86801905 13.78244294 -1.87301636 11.61807251 C-1.87339338 10.40536997 -1.87377041 9.19266743 -1.87415886 7.94321632 C-1.86725115 4.93922335 -1.86725115 4.93922335 -3 2 C-2.01 1.34 -1.02 0.68 0 0 Z " fill="#100F13" transform="translate(126,111)"/>
<path d="M0 0 C0.99 0 1.98 0 3 0 C2.67 0.99 2.34 1.98 2 3 C1.34 3 0.68 3 0 3 C0 3.66 0 4.32 0 5 C0.66 5 1.32 5 2 5 C2 6.65 2 8.3 2 10 C3.70625298 9.97787697 3.70625298 9.97787697 5.44697571 9.95530701 C16.34065345 9.815018 27.23440396 9.68252275 38.12826252 9.5570364 C43.72447826 9.49233985 49.32063909 9.42520164 54.91674805 9.35180664 C81.30768296 9.00758007 107.62469769 8.91872038 134 10 C134 10.33 134 10.66 134 11 C116.69349721 11.02333667 99.38699931 11.04098296 82.08048439 11.05181217 C74.04518738 11.05697349 66.00990012 11.06401308 57.97460938 11.07543945 C50.97292619 11.08539128 43.97125008 11.09185462 36.96956003 11.09408849 C33.26053707 11.09539475 29.55153434 11.09847525 25.84251785 11.10573006 C21.7070144 11.11375382 17.57154636 11.11399081 13.43603516 11.11352539 C11.58134865 11.1189183 11.58134865 11.1189183 9.68919373 11.12442017 C8.56736191 11.1230455 7.44553009 11.12167084 6.28970337 11.12025452 C5.31075922 11.12117631 4.33181507 11.1220981 3.32320595 11.12304783 C1 11 1 11 -1 10 C-1.02689216 8.52093108 -1.04634621 7.04172517 -1.0625 5.5625 C-1.07410156 4.73878906 -1.08570312 3.91507812 -1.09765625 3.06640625 C-1 1 -1 1 0 0 Z " fill="#E1E1E3" transform="translate(29,471)"/>
<path d="M0 0 C0.33 0 0.66 0 1 0 C1 2.97 1 5.94 1 9 C45.88 9 90.76 9 137 9 C137 9.66 137 10.32 137 11 C119.1546915 11.02332826 101.30938694 11.04097882 83.46406651 11.05181217 C75.17875726 11.05697528 66.89345747 11.06401827 58.6081543 11.07543945 C51.38930392 11.08538583 44.17046039 11.09185332 36.95160335 11.09408849 C33.12691745 11.09539568 29.30225113 11.09848203 25.47757149 11.10573006 C21.88174213 11.11248954 18.28594054 11.11461711 14.69010544 11.11310768 C12.73293963 11.11351636 10.77577688 11.11891193 8.81861877 11.12442017 C7.08744812 11.12235817 7.08744812 11.12235817 5.32130432 11.12025452 C4.311941 11.12117631 3.30257769 11.1220981 2.2626276 11.12304783 C0 11 0 11 -1 10 C-1.0979057 8.50261876 -1.12974864 7.00057108 -1.125 5.5 C-1.12757812 4.6853125 -1.13015625 3.870625 -1.1328125 3.03125 C-1 1 -1 1 0 0 Z " fill="#FDFCFE" transform="translate(27,472)"/>
<path d="M0 0 C-4.48842477 4.48842477 -13.97758123 3.04491914 -19.98257446 3.06567383 C-23.50940032 3.06030221 -27.03584202 3.0336368 -30.5625 3 C-33.41796455 2.9733638 -36.27336446 2.95345832 -39.12890625 2.9375 C-41.00171265 2.92009766 -41.00171265 2.92009766 -42.91235352 2.90234375 C-46.03833897 2.85384649 -46.03833897 2.85384649 -49 4 C-50.62933154 4.01560763 -52.25973097 3.96765104 -53.88671875 3.87890625 C-54.82451172 3.83056641 -55.76230469 3.78222656 -56.72851562 3.73242188 C-58.19321289 3.64831055 -58.19321289 3.64831055 -59.6875 3.5625 C-60.67556641 3.51029297 -61.66363281 3.45808594 -62.68164062 3.40429688 C-65.12141676 3.27464694 -67.56078105 3.13968258 -70 3 C-70 2.34 -70 1.68 -70 1 C-61.75906927 0.86905959 -53.51813067 0.7386309 -45.27718163 0.60884857 C-41.45024598 0.54856426 -37.62331325 0.48810623 -33.79638672 0.42724609 C-30.10056823 0.36847746 -26.40474269 0.31017183 -22.7089119 0.25218201 C-21.30157843 0.23001971 -19.89424755 0.20769292 -18.4869194 0.18519592 C-16.51000404 0.15362233 -14.53307835 0.12269727 -12.55615234 0.09179688 C-10.87070816 0.06514954 -10.87070816 0.06514954 -9.1512146 0.03796387 C-6.10044593 0.00121011 -3.05095484 -0.00675777 0 0 Z " fill="#FAFCFD" transform="translate(197,287)"/>
<path d="M0 0 C0.99 0.66 1.98 1.32 3 2 C1.68 4.97 0.36 7.94 -1 11 C-2.32 11 -3.64 11 -5 11 C-5 7 -5 7 -3.625 5.5 C-3.08875 5.005 -2.5525 4.51 -2 4 C-0.82425289 1.90010348 -0.82425289 1.90010348 0 0 Z " fill="#E5E5E5" transform="translate(476,301)"/>
<path d="M0 0 C0.66 0 1.32 0 2 0 C3.32 2.31 4.64 4.62 6 7 C5.01 7 4.02 7 3 7 C2.67 7.99 2.34 8.98 2 10 C1.34 9.67 0.68 9.34 0 9 C-0.6875 6 -0.6875 6 -1 3 C-0.67 2.67 -0.34 2.34 0 2 C0 1.34 0 0.68 0 0 Z " fill="#F7F9F8" transform="translate(600,454)"/>
<path d="M0 0 C0.66 0.33 1.32 0.66 2 1 C2 3.97 2 6.94 2 10 C1.01 10 0.02 10 -1 10 C-1.02689216 8.52093108 -1.04634621 7.04172517 -1.0625 5.5625 C-1.07410156 4.73878906 -1.08570313 3.91507812 -1.09765625 3.06640625 C-1 1 -1 1 0 0 Z " fill="#E8E9EB" transform="translate(354,472)"/>
<path d="M0 0 C1.17790906 3.53372717 0.82375082 5.40545095 0 9 C-0.66 9.99 -1.32 10.98 -2 12 C-2.33 10.35 -2.66 8.7 -3 7 C-2.34 7 -1.68 7 -1 7 C-1 6.34 -1 5.68 -1 5 C-1.66 5 -2.32 5 -3 5 C-3 3 -3 3 -1.5 1.375 C-1.005 0.92125 -0.51 0.4675 0 0 Z " fill="#F6F6F9" transform="translate(593,174)"/>
<path d="M0 0 C0.33 0.66 0.66 1.32 1 2 C0.0625 4.625 0.0625 4.625 -1 7 C-1.66 7 -2.32 7 -3 7 C-3.33 7.99 -3.66 8.98 -4 10 C-4.87491004 7.5502519 -5.12900603 6.36551707 -4.25 3.875 C-3 2 -3 2 0 0 Z " fill="#111113" transform="translate(436,401)"/>
<path d="M0 0 C0.99 0.33 1.98 0.66 3 1 C2.3125 3.4375 2.3125 3.4375 1 6 C-1.625 6.8125 -1.625 6.8125 -4 7 C-4 4 -4 4 -2 1.8125 C-1.34 1.214375 -0.68 0.61625 0 0 Z " fill="#15171B" transform="translate(511,176)"/>
<path d="M0 0 C3.73639216 1.24546405 4.18756513 2.63404953 6 6 C3.03 5.505 3.03 5.505 0 5 C-0.5625 3.0625 -0.5625 3.0625 -1 1 C-0.67 0.67 -0.34 0.34 0 0 Z " fill="#E8EAEB" transform="translate(292,134)"/>
<path d="M0 0 C3.1875 -0.375 3.1875 -0.375 7 0 C9.1403498 1.81188028 10.38988302 3.65801167 12 6 C11.67 6.66 11.34 7.32 11 8 C9.53977837 7.04454634 8.08188532 6.08553322 6.625 5.125 C5.81289063 4.59132813 5.00078125 4.05765625 4.1640625 3.5078125 C2 2 2 2 0 0 Z " fill="#F9F9F9" transform="translate(46,109)"/>
<path d="M0 0 C-2.62198774 2.15377564 -4.64404172 3.40072174 -8 4 C-8 2.68 -8 1.36 -8 0 C-5.13822943 -1.43088528 -3.06624227 -0.59991697 0 0 Z " fill="#E8E7E9" transform="translate(264,290)"/>
<path d="M0 0 C3.24271506 0.5590888 4.93057424 1.4132178 7 4 C7 4.66 7 5.32 7 6 C5.02 6 3.04 6 1 6 C1.33 5.01 1.66 4.02 2 3 C1.34 3 0.68 3 0 3 C0 2.01 0 1.02 0 0 Z " fill="#E7E8EA" transform="translate(335,467)"/>
<path d="M0 0 C0.66 0.33 1.32 0.66 2 1 C-0.75 5.875 -0.75 5.875 -3 7 C-3.66 6.67 -4.32 6.34 -5 6 C-3.86695008 2.60085025 -2.87481525 1.94745549 0 0 Z " fill="#101013" transform="translate(276,282)"/>
<path d="M0 0 C0.99 0.33 1.98 0.66 3 1 C2.67 1.66 2.34 2.32 2 3 C2.66 3.33 3.32 3.66 4 4 C1.525 5.485 1.525 5.485 -1 7 C-2 4 -2 4 -1.0625 1.8125 C-0.5365625 0.9153125 -0.5365625 0.9153125 0 0 Z " fill="#E8E4E9" transform="translate(476,260)"/>
<path d="M0 0 C1.98362069 2.91708924 1.9876191 4.12380904 1.625 7.75 C1.41875 8.8225 1.2125 9.895 1 11 C-0.96713413 8.04929881 -1.65358161 6.46418389 -2 3 C-1.34 2.01 -0.68 1.02 0 0 Z " fill="#1E2021" transform="translate(600,441)"/>
<path d="M0 0 C1.5625 1.6875 1.5625 1.6875 3 4 C2.6875 6.75 2.6875 6.75 2 9 C-0.57781906 6.42218094 -0.62129616 4.5598161 -1 1 C-0.67 0.67 -0.34 0.34 0 0 Z " fill="#E7E7E9" transform="translate(356,390)"/>
<path d="M0 0 C0.66 0.33 1.32 0.66 2 1 C1.25 5.75 1.25 5.75 -1 8 C-1.66 8 -2.32 8 -3 8 C-2.67 6.35 -2.34 4.7 -2 3 C-1.34 3 -0.68 3 0 3 C0 2.01 0 1.02 0 0 Z " fill="#EAEAEC" transform="translate(438,386)"/>
<path d="M0 0 C4 4.625 4 4.625 4 8 C2.68 8 1.36 8 0 8 C0 5.36 0 2.72 0 0 Z " fill="#E6E5E6" transform="translate(225,313)"/>
<path d="M0 0 C0.33 0 0.66 0 1 0 C1 1.98 1 3.96 1 6 C1.66 6 2.32 6 3 6 C2.67 7.65 2.34 9.3 2 11 C1.01 10.34 0.02 9.68 -1 9 C-0.67 6.03 -0.34 3.06 0 0 Z " fill="#141416" transform="translate(260,202)"/>
<path d="M0 0 C0.99 0 1.98 0 3 0 C3.66 1.98 4.32 3.96 5 6 C3.35 5.67 1.7 5.34 0 5 C0 3.35 0 1.7 0 0 Z " fill="#E4E4E4" transform="translate(123,448)"/>
<path d="M0 0 C2.8125 -0.25 2.8125 -0.25 6 0 C7.875 2 7.875 2 9 4 C8.01 4.33 7.02 4.66 6 5 C6 4.34 6 3.68 6 3 C4.02 2.34 2.04 1.68 0 1 C0 0.67 0 0.34 0 0 Z " fill="#141316" transform="translate(235,135)"/>
<path d="M0 0 C0.66 0.33 1.32 0.66 2 1 C1.2575 2.175625 1.2575 2.175625 0.5 3.375 C-1.16537965 5.78552327 -1.16537965 5.78552327 -1 8 C-1.99 7.67 -2.98 7.34 -4 7 C-3.39816251 4.97954558 -2.72693904 2.97888961 -2 1 C-1.34 0.67 -0.68 0.34 0 0 Z " fill="#E9E8EA" transform="translate(545,110)"/>
<path d="M0 0 C0.66 0 1.32 0 2 0 C1.25 2.9375 1.25 2.9375 0 6 C-2.125 6.875 -2.125 6.875 -4 7 C-2.68 4.69 -1.36 2.38 0 0 Z " fill="#E5E2E6" transform="translate(64,450)"/>
<path d="M0 0 C0.99 0.33 1.98 0.66 3 1 C2.67 2.65 2.34 4.3 2 6 C1.01 6.33 0.02 6.66 -1 7 C-1.125 2.25 -1.125 2.25 0 0 Z " fill="#E5E5E7" transform="translate(488,272)"/>
<path d="M0 0 C2 2 2 2 2.3125 4.5 C2.209375 5.325 2.10625 6.15 2 7 C1.01 7.66 0.02 8.32 -1 9 C-0.67 6.03 -0.34 3.06 0 0 Z " fill="#181818" transform="translate(599,130)"/>
<path d="M0 0 C0.99 0 1.98 0 3 0 C2.67 0.99 2.34 1.98 2 3 C1.34 3 0.68 3 0 3 C0 5.31 0 7.62 0 10 C-0.33 10 -0.66 10 -1 10 C-1.02689216 8.52093108 -1.04634621 7.04172517 -1.0625 5.5625 C-1.07410156 4.73878906 -1.08570312 3.91507812 -1.09765625 3.06640625 C-1 1 -1 1 0 0 Z " fill="#DDDEE2" transform="translate(29,471)"/>
<path d="M0 0 C0.66 0.33 1.32 0.66 2 1 C2.625 4.0625 2.625 4.0625 3 7 C2.01 7.495 2.01 7.495 1 8 C0.26919734 6.02253397 -0.39421747 4.01927511 -1 2 C-0.67 1.34 -0.34 0.68 0 0 Z " fill="#121213" transform="translate(376,313)"/>
<path d="M0 0 C0.66 0 1.32 0 2 0 C2 0.66 2 1.32 2 2 C2.99 2 3.98 2 5 2 C5 3.32 5 4.64 5 6 C4.01 6 3.02 6 2 6 C1.34 4.02 0.68 2.04 0 0 Z " fill="#111314" transform="translate(365,293)"/>
<path d="M0 0 C1.98 0.495 1.98 0.495 4 1 C3.67 2.32 3.34 3.64 3 5 C1.68 5 0.36 5 -1 5 C-0.67 3.35 -0.34 1.7 0 0 Z " fill="#F7F7FA" transform="translate(255,240)"/>
<path d="M0 0 C1.89213369 2.38573379 3.02391783 4.07175348 4 7 C3.34 7 2.68 7 2 7 C1.67 6.34 1.34 5.68 1 5 C0.34 5.66 -0.32 6.32 -1 7 C-1.04254356 5.00045254 -1.04080783 2.99958364 -1 1 C-0.67 0.67 -0.34 0.34 0 0 Z " fill="#DDDDDF" transform="translate(304,150)"/>
<path d="M0 0 C2.97 0 5.94 0 9 0 C8.67 0.99 8.34 1.98 8 3 C5.6568787 2.74438677 3.32156597 2.40729228 1 2 C0.67 1.34 0.34 0.68 0 0 Z " fill="#161617" transform="translate(228,97)"/>
</svg>
